<svg width="24" height="24" viewBox="0 0 24 24" fill="none" xmlns="http://www.w3.org/2000/svg">
<path d="M2.91915 6.60608C2.70159 6.09845 2.11371 5.8633 1.60608 6.08085C1.09845 6.29841 0.863299 6.88629 1.08085 7.39392L2.91915 6.60608ZM15.5872 13.3287L15.2209 12.3982L15.5872 13.3287ZM9.251 13.8741C9.5522 13.4112 9.42111 12.7917 8.9582 12.4905C8.49528 12.1893 7.87583 12.3204 7.57463 12.7833L9.251 13.8741ZM6.16182 14.9546C5.86061 15.4175 5.9917 16.037 6.45461 16.3382C6.91753 16.6394 7.53698 16.5083 7.83818 16.0454L6.16182 14.9546ZM22.9191 7.39392C23.1367 6.88629 22.9015 6.29841 22.3939 6.08085C21.8863 5.8633 21.2984 6.09845 21.0809 6.60608L22.9191 7.39392ZM19 11.1288L18.3156 10.3997V10.3997L19 11.1288ZM19.7929 13.3359C20.1834 13.7265 20.8166 13.7265 21.2071 13.3359C21.5976 12.9454 21.5976 12.3123 21.2071 11.9217L19.7929 13.3359ZM11 16.5C11 17.0523 11.4477 17.5 12 17.5C12.5523 17.5 13 17.0523 13 16.5H11ZM16.1618 16.0454C16.463 16.5083 17.0825 16.6394 17.5454 16.3382C18.0083 16.037 18.1394 15.4175 17.8382 14.9546L16.1618 16.0454ZM5.70711 11.8359C6.09763 11.4454 6.09763 10.8123 5.70711 10.4217C5.31658 10.0312 4.68342 10.0312 4.29289 10.4217L5.70711 11.8359ZM2.79289 11.9217C2.40237 12.3123 2.40237 12.9454 2.79289 13.3359C3.18342 13.7265 3.81658 13.7265 4.20711 13.3359L2.79289 11.9217ZM12 13C8.86815 13 6.6151 11.4428 5.10779 9.81955C4.35444 9.00824 3.80142 8.19378 3.43742 7.58227C3.25598 7.27745 3.12307 7.02569 3.03701 6.85357C2.99401 6.76758 2.96283 6.7017 2.94323 6.65928C2.93344 6.63808 2.92655 6.62276 2.92254 6.61375C2.92054 6.60924 2.91926 6.60631 2.91869 6.60502C2.91841 6.60437 2.91831 6.60413 2.91838 6.60431C2.91842 6.60439 2.9185 6.60458 2.91863 6.60488C2.91869 6.60503 2.91882 6.60533 2.91885 6.6054C2.91899 6.60573 2.91915 6.60608 2 7C1.08085 7.39392 1.08103 7.39433 1.08122 7.39476C1.08129 7.39494 1.08149 7.3954 1.08165 7.39576C1.08196 7.39648 1.08231 7.39731 1.08272 7.39824C1.08353 7.40012 1.08452 7.40241 1.08571 7.40513C1.08808 7.41056 1.09121 7.41768 1.09509 7.42641C1.10287 7.44389 1.11368 7.46788 1.12757 7.49795C1.15534 7.55806 1.19544 7.64258 1.24815 7.74799C1.3535 7.95868 1.50964 8.2538 1.71883 8.60523C2.13608 9.30622 2.77056 10.2418 3.64221 11.1805C5.3849 13.0572 8.13185 15 12 15V13ZM15.2209 12.3982C14.2784 12.7692 13.209 13 12 13V15C13.471 15 14.7883 14.7178 15.9534 14.2592L15.2209 12.3982ZM7.57463 12.7833L6.16182 14.9546L7.83818 16.0454L9.251 13.8741L7.57463 12.7833ZM22 7C21.0809 6.60608 21.0809 6.60588 21.081 6.60568C21.081 6.60563 21.0811 6.60544 21.0812 6.60533C21.0813 6.60511 21.0814 6.60493 21.0814 6.60478C21.0815 6.60447 21.0816 6.6043 21.0816 6.60426C21.0817 6.60418 21.0815 6.60461 21.0811 6.60556C21.0802 6.60745 21.0785 6.61138 21.0759 6.61727C21.0706 6.62907 21.0617 6.64871 21.0492 6.67561C21.0241 6.72943 20.9844 6.81216 20.9299 6.91909C20.8207 7.13318 20.6526 7.44291 20.4233 7.81099C19.9628 8.55004 19.2652 9.50838 18.3156 10.3997L19.6844 11.858C20.7933 10.8171 21.5958 9.71099 22.1207 8.86867C22.384 8.44608 22.5799 8.08589 22.7116 7.82774C22.7775 7.69854 22.8274 7.59457 22.8619 7.52071C22.8791 7.48377 22.8924 7.45433 22.902 7.43301C22.9067 7.42234 22.9105 7.4137 22.9134 7.40716C22.9148 7.40389 22.916 7.40115 22.917 7.39894C22.9175 7.39783 22.9179 7.39686 22.9182 7.39602C22.9184 7.39561 22.9186 7.39522 22.9187 7.39487C22.9188 7.3947 22.9189 7.39446 22.919 7.39437C22.9191 7.39414 22.9191 7.39392 22 7ZM18.3156 10.3997C17.4746 11.1891 16.4469 11.9156 15.2209 12.3982L15.9534 14.2592C17.4624 13.6653 18.6998 12.7821 19.6844 11.858L18.3156 10.3997ZM18.2929 11.8359L19.7929 13.3359L21.2071 11.9217L19.7071 10.4217L18.2929 11.8359ZM11 14V16.5H13V14H11ZM14.749 13.8741L16.1618 16.0454L17.8382 14.9546L16.4254 12.7833L14.749 13.8741ZM4.29289 10.4217L2.79289 11.9217L4.20711 13.3359L5.70711 11.8359L4.29289 10.4217Z" fill="#676E75"/>
</svg>
