<svg width="64" height="64" viewBox="0 0 64 64" fill="none" xmlns="http://www.w3.org/2000/svg">
    <path d="M53.7054 17.1163V51.845C53.7054 55.6155 50.6543 58.6667 46.8837 58.6667H17.1163C13.3457 58.6667 10.2946 55.6155 10.2946 51.845V17.1163C10.2946 13.3457 13.3457 10.2946 17.1163 10.2946H18.0093C17.8357 10.8899 17.7364 11.5101 17.7364 12.155V17.1163C17.7364 20.8868 20.7876 23.938 24.5582 23.938H39.4419C43.2124 23.938 46.2636 20.8868 46.2636 17.1163V12.155C46.2636 11.5101 46.1644 10.8899 45.9907 10.2946H46.8837C50.6543 10.2946 53.7054 13.3457 53.7054 17.1163ZM43.783 44.4031C43.783 43.386 42.9395 42.5426 41.9225 42.5426H22.0775C21.0605 42.5426 20.2171 43.386 20.2171 44.4031C20.2171 45.4202 21.0605 46.2636 22.0775 46.2636H41.9225C42.9395 46.2636 43.783 45.4202 43.783 44.4031ZM43.783 34.4806C43.783 33.4636 42.9395 32.6202 41.9225 32.6202H22.0775C21.0605 32.6202 20.2171 33.4636 20.2171 34.4806C20.2171 35.4977 21.0605 36.3411 22.0775 36.3411H41.9225C42.9395 36.3411 43.783 35.4977 43.783 34.4806Z" fill="white"/>
    <path opacity="0.4" d="M41.3019 17.1163V12.155C41.3019 11.138 40.4585 10.2946 39.4415 10.2946H38.5732C37.7546 7.44186 35.1252 5.33334 31.9996 5.33334C28.874 5.33334 26.2446 7.44186 25.4259 10.2946H24.5577C23.5407 10.2946 22.6973 11.138 22.6973 12.155V17.1163C22.6973 18.1333 23.5407 18.9767 24.5577 18.9767H39.4415C40.4585 18.9767 41.3019 18.1333 41.3019 17.1163Z" fill="white"/>
</svg>
